%TF.GenerationSoftware,KiCad,Pcbnew,7.0.6-0*%
%TF.CreationDate,2024-10-24T11:02:24+08:00*%
%TF.ProjectId,kweba,6b776562-612e-46b6-9963-61645f706362,rev?*%
%TF.SameCoordinates,Original*%
%TF.FileFunction,Soldermask,Top*%
%TF.FilePolarity,Negative*%
%FSLAX46Y46*%
G04 Gerber Fmt 4.6, Leading zero omitted, Abs format (unit mm)*
G04 Created by KiCad (PCBNEW 7.0.6-0) date 2024-10-24 11:02:24*
%MOMM*%
%LPD*%
G01*
G04 APERTURE LIST*
G04 Aperture macros list*
%AMRoundRect*
0 Rectangle with rounded corners*
0 $1 Rounding radius*
0 $2 $3 $4 $5 $6 $7 $8 $9 X,Y pos of 4 corners*
0 Add a 4 corners polygon primitive as box body*
4,1,4,$2,$3,$4,$5,$6,$7,$8,$9,$2,$3,0*
0 Add four circle primitives for the rounded corners*
1,1,$1+$1,$2,$3*
1,1,$1+$1,$4,$5*
1,1,$1+$1,$6,$7*
1,1,$1+$1,$8,$9*
0 Add four rect primitives between the rounded corners*
20,1,$1+$1,$2,$3,$4,$5,0*
20,1,$1+$1,$4,$5,$6,$7,0*
20,1,$1+$1,$6,$7,$8,$9,0*
20,1,$1+$1,$8,$9,$2,$3,0*%
G04 Aperture macros list end*
%ADD10C,2.500000*%
%ADD11C,1.752600*%
%ADD12C,1.700000*%
%ADD13C,3.400000*%
%ADD14C,2.000000*%
%ADD15R,1.000000X0.800000*%
%ADD16C,0.900000*%
%ADD17R,0.700000X1.500000*%
%ADD18RoundRect,0.250000X-0.750000X0.600000X-0.750000X-0.600000X0.750000X-0.600000X0.750000X0.600000X0*%
%ADD19O,2.000000X1.700000*%
G04 APERTURE END LIST*
D10*
%TO.C,H8*%
X-195925000Y-205700000D03*
%TD*%
%TO.C,H7*%
X-209825000Y-205800000D03*
%TD*%
%TO.C,H6*%
X-195925000Y-183000000D03*
%TD*%
D11*
%TO.C,U1*%
X-247133250Y-183830000D03*
X-244593250Y-183830000D03*
X-242053250Y-183830000D03*
X-239513250Y-183830000D03*
X-236973250Y-183830000D03*
X-234433250Y-183830000D03*
X-231893250Y-183830000D03*
X-229353250Y-183830000D03*
X-226813250Y-183830000D03*
X-224273250Y-183830000D03*
X-221733250Y-183830000D03*
X-219193250Y-183830000D03*
X-219193250Y-199070000D03*
X-221733250Y-199070000D03*
X-224273250Y-199070000D03*
X-226813250Y-199070000D03*
X-229353250Y-199070000D03*
X-231893250Y-199070000D03*
X-234433250Y-199070000D03*
X-236973250Y-199070000D03*
X-239513250Y-199070000D03*
X-242053250Y-199070000D03*
X-244593250Y-199070000D03*
X-247133250Y-199070000D03*
X-224273250Y-186370000D03*
X-224273250Y-188910000D03*
X-224273250Y-191450000D03*
%TD*%
D12*
%TO.C,SW15*%
X-207225000Y-168975000D03*
D13*
X-201725000Y-168975000D03*
D12*
X-196225000Y-168975000D03*
D14*
X-201725000Y-163075000D03*
X-206725000Y-165175000D03*
%TD*%
D10*
%TO.C,H5*%
X-209925000Y-182850000D03*
%TD*%
D12*
%TO.C,SW2*%
X-243725000Y-151650000D03*
D13*
X-238225000Y-151650000D03*
D12*
X-232725000Y-151650000D03*
D14*
X-238225000Y-145750000D03*
X-243225000Y-147850000D03*
%TD*%
D12*
%TO.C,SW6*%
X-188800000Y-168925000D03*
D13*
X-183300000Y-168925000D03*
D12*
X-177800000Y-168925000D03*
D14*
X-183300000Y-163025000D03*
X-188300000Y-165125000D03*
%TD*%
D15*
%TO.C,SW18*%
X-243600000Y-205975000D03*
X-243600000Y-208185000D03*
D16*
X-241450000Y-207085000D03*
X-238450000Y-207085000D03*
D15*
X-236300000Y-205975000D03*
X-236300000Y-208185000D03*
D17*
X-242200000Y-205325000D03*
X-239200000Y-205325000D03*
X-237700000Y-205325000D03*
%TD*%
D12*
%TO.C,SW5*%
X-188700000Y-151550000D03*
D13*
X-183200000Y-151550000D03*
D12*
X-177700000Y-151550000D03*
D14*
X-183200000Y-145650000D03*
X-188200000Y-147750000D03*
%TD*%
D10*
%TO.C,H3*%
X-154650000Y-206150000D03*
%TD*%
D12*
%TO.C,SW11*%
X-170375000Y-151550000D03*
D13*
X-164875000Y-151550000D03*
D12*
X-159375000Y-151550000D03*
D14*
X-164875000Y-145650000D03*
X-169875000Y-147750000D03*
%TD*%
D12*
%TO.C,SW14*%
X-207125000Y-151600000D03*
D13*
X-201625000Y-151600000D03*
D12*
X-196125000Y-151600000D03*
D14*
X-201625000Y-145700000D03*
X-206625000Y-147800000D03*
%TD*%
D12*
%TO.C,SW7*%
X-225325000Y-134275000D03*
D13*
X-219825000Y-134275000D03*
D12*
X-214325000Y-134275000D03*
D14*
X-219825000Y-128375000D03*
X-224825000Y-130475000D03*
%TD*%
D12*
%TO.C,SW4*%
X-188625000Y-134175000D03*
D13*
X-183125000Y-134175000D03*
D12*
X-177625000Y-134175000D03*
D14*
X-183125000Y-128275000D03*
X-188125000Y-130375000D03*
%TD*%
D10*
%TO.C,H1*%
X-248575000Y-127375000D03*
%TD*%
D12*
%TO.C,SW12*%
X-170475000Y-168925000D03*
D13*
X-164975000Y-168925000D03*
D12*
X-159475000Y-168925000D03*
D14*
X-164975000Y-163025000D03*
X-169975000Y-165125000D03*
%TD*%
D12*
%TO.C,SW16*%
X-188725000Y-193475000D03*
D13*
X-183225000Y-193475000D03*
D12*
X-177725000Y-193475000D03*
D14*
X-183225000Y-187575000D03*
X-188225000Y-189675000D03*
%TD*%
D12*
%TO.C,SW3*%
X-243825000Y-169025000D03*
D13*
X-238325000Y-169025000D03*
D12*
X-232825000Y-169025000D03*
D14*
X-238325000Y-163125000D03*
X-243325000Y-165225000D03*
%TD*%
D12*
%TO.C,SW13*%
X-207050000Y-134225000D03*
D13*
X-201550000Y-134225000D03*
D12*
X-196050000Y-134225000D03*
D14*
X-201550000Y-128325000D03*
X-206550000Y-130425000D03*
%TD*%
%TO.C,SW19*%
X-224800000Y-205600000D03*
X-218300000Y-205600000D03*
%TD*%
D12*
%TO.C,SW17*%
X-170350000Y-193475000D03*
D13*
X-164850000Y-193475000D03*
D12*
X-159350000Y-193475000D03*
D14*
X-164850000Y-187575000D03*
X-169850000Y-189675000D03*
%TD*%
D12*
%TO.C,SW8*%
X-225400000Y-151650000D03*
D13*
X-219900000Y-151650000D03*
D12*
X-214400000Y-151650000D03*
D14*
X-219900000Y-145750000D03*
X-224900000Y-147850000D03*
%TD*%
D10*
%TO.C,H4*%
X-248550000Y-205975000D03*
%TD*%
D12*
%TO.C,SW10*%
X-170300000Y-134175000D03*
D13*
X-164800000Y-134175000D03*
D12*
X-159300000Y-134175000D03*
D14*
X-164800000Y-128275000D03*
X-169800000Y-130375000D03*
%TD*%
D12*
%TO.C,SW1*%
X-243650000Y-134275000D03*
D13*
X-238150000Y-134275000D03*
D12*
X-232650000Y-134275000D03*
D14*
X-238150000Y-128375000D03*
X-243150000Y-130475000D03*
%TD*%
D10*
%TO.C,H2*%
X-154650000Y-127375000D03*
%TD*%
D12*
%TO.C,SW9*%
X-225500000Y-169025000D03*
D13*
X-220000000Y-169025000D03*
D12*
X-214500000Y-169025000D03*
D14*
X-220000000Y-163125000D03*
X-225000000Y-165225000D03*
%TD*%
D18*
%TO.C,J1*%
X-214850000Y-185875000D03*
D19*
X-214850000Y-188375000D03*
%TD*%
M02*
