%TF.GenerationSoftware,KiCad,Pcbnew,7.0.6-0*%
%TF.CreationDate,2024-10-24T11:02:24+08:00*%
%TF.ProjectId,kweba,6b776562-612e-46b6-9963-61645f706362,rev?*%
%TF.SameCoordinates,Original*%
%TF.FileFunction,Copper,L2,Bot*%
%TF.FilePolarity,Positive*%
%FSLAX46Y46*%
G04 Gerber Fmt 4.6, Leading zero omitted, Abs format (unit mm)*
G04 Created by KiCad (PCBNEW 7.0.6-0) date 2024-10-24 11:02:24*
%MOMM*%
%LPD*%
G01*
G04 APERTURE LIST*
G04 Aperture macros list*
%AMRoundRect*
0 Rectangle with rounded corners*
0 $1 Rounding radius*
0 $2 $3 $4 $5 $6 $7 $8 $9 X,Y pos of 4 corners*
0 Add a 4 corners polygon primitive as box body*
4,1,4,$2,$3,$4,$5,$6,$7,$8,$9,$2,$3,0*
0 Add four circle primitives for the rounded corners*
1,1,$1+$1,$2,$3*
1,1,$1+$1,$4,$5*
1,1,$1+$1,$6,$7*
1,1,$1+$1,$8,$9*
0 Add four rect primitives between the rounded corners*
20,1,$1+$1,$2,$3,$4,$5,0*
20,1,$1+$1,$4,$5,$6,$7,0*
20,1,$1+$1,$6,$7,$8,$9,0*
20,1,$1+$1,$8,$9,$2,$3,0*%
G04 Aperture macros list end*
%TA.AperFunction,ComponentPad*%
%ADD10C,1.752600*%
%TD*%
%TA.AperFunction,ComponentPad*%
%ADD11C,2.000000*%
%TD*%
%TA.AperFunction,ComponentPad*%
%ADD12RoundRect,0.250000X-0.750000X0.600000X-0.750000X-0.600000X0.750000X-0.600000X0.750000X0.600000X0*%
%TD*%
%TA.AperFunction,ComponentPad*%
%ADD13O,2.000000X1.700000*%
%TD*%
%TA.AperFunction,Conductor*%
%ADD14C,0.250000*%
%TD*%
G04 APERTURE END LIST*
D10*
%TO.P,U1,1,TX0/P0.06*%
%TO.N,R1*%
X-247133250Y-183830000D03*
%TO.P,U1,2,RX1/P0.08*%
%TO.N,R2*%
X-244593250Y-183830000D03*
%TO.P,U1,3,GND*%
%TO.N,GND1*%
X-242053250Y-183830000D03*
%TO.P,U1,4,GND*%
%TO.N,unconnected-(U1-GND-Pad4)*%
X-239513250Y-183830000D03*
%TO.P,U1,5,P0.17*%
%TO.N,R3*%
X-236973250Y-183830000D03*
%TO.P,U1,6,P0.20*%
%TO.N,R7*%
X-234433250Y-183830000D03*
%TO.P,U1,7,P0.22*%
%TO.N,R8*%
X-231893250Y-183830000D03*
%TO.P,U1,8,P0.24*%
%TO.N,R9*%
X-229353250Y-183830000D03*
%TO.P,U1,9,P1.00*%
%TO.N,R15*%
X-226813250Y-183830000D03*
%TO.P,U1,10,P0.11*%
%TO.N,R13*%
X-224273250Y-183830000D03*
%TO.P,U1,11,P1.04*%
%TO.N,R14*%
X-221733250Y-183830000D03*
%TO.P,U1,12,P1.06*%
%TO.N,R4*%
X-219193250Y-183830000D03*
%TO.P,U1,13,NFC1/P0.09*%
%TO.N,R17*%
X-219193250Y-199070000D03*
%TO.P,U1,14,NFC2/P0.10*%
%TO.N,R16*%
X-221733250Y-199070000D03*
%TO.P,U1,15,P1.11*%
%TO.N,R12*%
X-224273250Y-199070000D03*
%TO.P,U1,16,P1.13*%
%TO.N,R11*%
X-226813250Y-199070000D03*
%TO.P,U1,17,P1.15*%
%TO.N,R10*%
X-229353250Y-199070000D03*
%TO.P,U1,18,AIN0/P0.02*%
%TO.N,R6*%
X-231893250Y-199070000D03*
%TO.P,U1,19,AIN5/P0.29*%
%TO.N,R5*%
X-234433250Y-199070000D03*
%TO.P,U1,20,AIN7/P0.31*%
%TO.N,unconnected-(U1-AIN7{slash}P0.31-Pad20)*%
X-236973250Y-199070000D03*
%TO.P,U1,21,VCC*%
%TO.N,unconnected-(U1-VCC-Pad21)*%
X-239513250Y-199070000D03*
%TO.P,U1,22,RST*%
%TO.N,RST*%
X-242053250Y-199070000D03*
%TO.P,U1,23,GND*%
%TO.N,GND*%
X-244593250Y-199070000D03*
%TO.P,U1,24,BATIN/P0.04*%
%TO.N,BAT*%
X-247133250Y-199070000D03*
%TO.P,U1,31,P1.01*%
%TO.N,unconnected-(U1-P1.01-Pad31)*%
X-224273250Y-186370000D03*
%TO.P,U1,32,P1.02*%
%TO.N,unconnected-(U1-P1.02-Pad32)*%
X-224273250Y-188910000D03*
%TO.P,U1,33,P1.07*%
%TO.N,unconnected-(U1-P1.07-Pad33)*%
X-224273250Y-191450000D03*
%TD*%
D11*
%TO.P,SW15,1,1*%
%TO.N,GND1*%
X-201725000Y-163075000D03*
%TO.P,SW15,2,2*%
%TO.N,R14*%
X-206725000Y-165175000D03*
X-196725000Y-165175000D03*
%TD*%
%TO.P,SW2,1,1*%
%TO.N,GND1*%
X-238225000Y-145750000D03*
%TO.P,SW2,2,2*%
%TO.N,R2*%
X-243225000Y-147850000D03*
X-233225000Y-147850000D03*
%TD*%
%TO.P,SW6,1,1*%
%TO.N,GND1*%
X-183300000Y-163025000D03*
%TO.P,SW6,2,2*%
%TO.N,R6*%
X-188300000Y-165125000D03*
X-178300000Y-165125000D03*
%TD*%
%TO.P,SW5,1,1*%
%TO.N,GND1*%
X-183200000Y-145650000D03*
%TO.P,SW5,2,2*%
%TO.N,R5*%
X-188200000Y-147750000D03*
X-178200000Y-147750000D03*
%TD*%
%TO.P,SW11,1,1*%
%TO.N,GND1*%
X-164875000Y-145650000D03*
%TO.P,SW11,2,2*%
%TO.N,R11*%
X-169875000Y-147750000D03*
X-159875000Y-147750000D03*
%TD*%
%TO.P,SW14,1,1*%
%TO.N,GND1*%
X-201625000Y-145700000D03*
%TO.P,SW14,2,2*%
%TO.N,R13*%
X-206625000Y-147800000D03*
X-196625000Y-147800000D03*
%TD*%
%TO.P,SW7,1,1*%
%TO.N,GND1*%
X-219825000Y-128375000D03*
%TO.P,SW7,2,2*%
%TO.N,R7*%
X-224825000Y-130475000D03*
X-214825000Y-130475000D03*
%TD*%
%TO.P,SW4,1,1*%
%TO.N,GND1*%
X-183125000Y-128275000D03*
%TO.P,SW4,2,2*%
%TO.N,R4*%
X-188125000Y-130375000D03*
X-178125000Y-130375000D03*
%TD*%
%TO.P,SW12,1,1*%
%TO.N,GND1*%
X-164975000Y-163025000D03*
%TO.P,SW12,2,2*%
%TO.N,R12*%
X-169975000Y-165125000D03*
X-159975000Y-165125000D03*
%TD*%
%TO.P,SW16,1,1*%
%TO.N,GND1*%
X-183225000Y-187575000D03*
%TO.P,SW16,2,2*%
%TO.N,R16*%
X-188225000Y-189675000D03*
X-178225000Y-189675000D03*
%TD*%
%TO.P,SW3,1,1*%
%TO.N,GND1*%
X-238325000Y-163125000D03*
%TO.P,SW3,2,2*%
%TO.N,R3*%
X-243325000Y-165225000D03*
X-233325000Y-165225000D03*
%TD*%
%TO.P,SW13,1,1*%
%TO.N,GND1*%
X-201550000Y-128325000D03*
%TO.P,SW13,2,2*%
%TO.N,R15*%
X-206550000Y-130425000D03*
X-196550000Y-130425000D03*
%TD*%
%TO.P,SW19,1,1*%
%TO.N,GND*%
X-224800000Y-205600000D03*
%TO.P,SW19,2,2*%
%TO.N,RST*%
X-218300000Y-205600000D03*
%TD*%
%TO.P,SW17,1,1*%
%TO.N,GND1*%
X-164850000Y-187575000D03*
%TO.P,SW17,2,2*%
%TO.N,R17*%
X-169850000Y-189675000D03*
X-159850000Y-189675000D03*
%TD*%
%TO.P,SW8,1,1*%
%TO.N,GND1*%
X-219900000Y-145750000D03*
%TO.P,SW8,2,2*%
%TO.N,R8*%
X-224900000Y-147850000D03*
X-214900000Y-147850000D03*
%TD*%
%TO.P,SW10,1,1*%
%TO.N,GND1*%
X-164800000Y-128275000D03*
%TO.P,SW10,2,2*%
%TO.N,R10*%
X-169800000Y-130375000D03*
X-159800000Y-130375000D03*
%TD*%
%TO.P,SW1,1,1*%
%TO.N,GND1*%
X-238150000Y-128375000D03*
%TO.P,SW1,2,2*%
%TO.N,R1*%
X-243150000Y-130475000D03*
X-233150000Y-130475000D03*
%TD*%
%TO.P,SW9,1,1*%
%TO.N,GND1*%
X-220000000Y-163125000D03*
%TO.P,SW9,2,2*%
%TO.N,R9*%
X-225000000Y-165225000D03*
X-215000000Y-165225000D03*
%TD*%
D12*
%TO.P,J1,1,Pin_1*%
%TO.N,SWB*%
X-214850000Y-185875000D03*
D13*
%TO.P,J1,2,Pin_2*%
%TO.N,BAT*%
X-214850000Y-188375000D03*
%TD*%
D14*
%TO.N,R4*%
X-194625000Y-169300000D02*
X-194625000Y-136875000D01*
X-219193250Y-183830000D02*
X-208088250Y-172725000D01*
X-208088250Y-172725000D02*
X-198075000Y-172725000D01*
X-198075000Y-172725000D02*
X-194650000Y-169300000D01*
X-194650000Y-169300000D02*
X-194625000Y-169300000D01*
%TO.N,R1*%
X-247133250Y-134458250D02*
X-247133250Y-183830000D01*
X-243150000Y-130475000D02*
X-247133250Y-134458250D01*
X-243150000Y-130475000D02*
X-233150000Y-130475000D01*
%TO.N,R2*%
X-243225000Y-147850000D02*
X-245931950Y-150556950D01*
X-243225000Y-147850000D02*
X-233225000Y-147850000D01*
X-245931950Y-182491300D02*
X-244593250Y-183830000D01*
X-245931950Y-150556950D02*
X-245931950Y-182491300D01*
%TO.N,R3*%
X-233325000Y-166959493D02*
X-236973250Y-170607743D01*
X-236973250Y-170607743D02*
X-236973250Y-183830000D01*
X-233325000Y-165225000D02*
X-233325000Y-166959493D01*
X-243325000Y-165225000D02*
X-233325000Y-165225000D01*
%TO.N,R4*%
X-188125000Y-130375000D02*
X-178125000Y-130375000D01*
X-194625000Y-136875000D02*
X-188125000Y-130375000D01*
%TO.N,R5*%
X-234433250Y-199070000D02*
X-233231950Y-197868700D01*
X-193875000Y-169950000D02*
X-193875000Y-153425000D01*
X-233218700Y-197868700D02*
X-228650000Y-193300000D01*
X-188200000Y-147750000D02*
X-178200000Y-147750000D01*
X-193875000Y-153425000D02*
X-188200000Y-147750000D01*
X-217225000Y-193300000D02*
X-193875000Y-169950000D01*
X-228650000Y-193300000D02*
X-217225000Y-193300000D01*
X-233231950Y-197868700D02*
X-233218700Y-197868700D01*
%TO.N,R6*%
X-191075000Y-165125000D02*
X-193225000Y-167275000D01*
X-216975000Y-193925000D02*
X-227525000Y-193925000D01*
X-227525000Y-194701750D02*
X-231893250Y-199070000D01*
X-227525000Y-193925000D02*
X-227525000Y-194701750D01*
X-188300000Y-165125000D02*
X-178300000Y-165125000D01*
X-193225000Y-170175000D02*
X-216975000Y-193925000D01*
X-193225000Y-167275000D02*
X-193225000Y-170175000D01*
X-188300000Y-165125000D02*
X-191075000Y-165125000D01*
%TO.N,R7*%
X-231500000Y-137150000D02*
X-231500000Y-180896750D01*
X-224825000Y-130475000D02*
X-231500000Y-137150000D01*
X-231500000Y-180896750D02*
X-234433250Y-183830000D01*
X-224825000Y-130475000D02*
X-214825000Y-130475000D01*
%TO.N,R8*%
X-226750000Y-149700000D02*
X-224900000Y-147850000D01*
X-229025000Y-149700000D02*
X-226750000Y-149700000D01*
X-231893250Y-183830000D02*
X-229025000Y-180961750D01*
X-229025000Y-180961750D02*
X-229025000Y-149700000D01*
X-224900000Y-147850000D02*
X-214900000Y-147850000D01*
%TO.N,R9*%
X-228575000Y-168800000D02*
X-228575000Y-183051750D01*
X-225000000Y-165225000D02*
X-215000000Y-165225000D01*
X-228575000Y-183051750D02*
X-229353250Y-183830000D01*
X-225000000Y-165225000D02*
X-228575000Y-168800000D01*
%TO.N,R10*%
X-175775000Y-133900000D02*
X-172250000Y-130375000D01*
X-225550000Y-195025000D02*
X-217000000Y-195025000D01*
X-229353250Y-199070000D02*
X-225550000Y-195266750D01*
X-169800000Y-130375000D02*
X-159800000Y-130375000D01*
X-172250000Y-130375000D02*
X-169800000Y-130375000D01*
X-193000000Y-171025000D02*
X-177350000Y-171025000D01*
X-225550000Y-195266750D02*
X-225550000Y-195025000D01*
X-217000000Y-195025000D02*
X-193000000Y-171025000D01*
X-177350000Y-171025000D02*
X-175775000Y-169450000D01*
X-175775000Y-169450000D02*
X-175775000Y-133900000D01*
%TO.N,R11*%
X-225800000Y-197125000D02*
X-225875000Y-197125000D01*
X-225875000Y-197125000D02*
X-225875000Y-198131750D01*
X-192175000Y-172550000D02*
X-215425000Y-195800000D01*
X-178238604Y-172550000D02*
X-192175000Y-172550000D01*
X-215425000Y-195800000D02*
X-224475000Y-195800000D01*
X-224475000Y-195800000D02*
X-225800000Y-197125000D01*
X-169875000Y-147750000D02*
X-159875000Y-147750000D01*
X-175325000Y-169636396D02*
X-178238604Y-172550000D01*
X-169875000Y-147750000D02*
X-175325000Y-153200000D01*
X-175325000Y-153200000D02*
X-175325000Y-169636396D01*
X-225875000Y-198131750D02*
X-226813250Y-199070000D01*
%TO.N,R12*%
X-177200000Y-172350000D02*
X-169975000Y-165125000D01*
X-169975000Y-165125000D02*
X-159975000Y-165125000D01*
X-214400000Y-196400000D02*
X-191175000Y-173175000D01*
X-177200000Y-173175000D02*
X-177200000Y-172350000D01*
X-221603250Y-196400000D02*
X-214400000Y-196400000D01*
X-224273250Y-199070000D02*
X-221603250Y-196400000D01*
X-191175000Y-173175000D02*
X-177200000Y-173175000D01*
%TO.N,R15*%
X-206550000Y-130425000D02*
X-196550000Y-130425000D01*
X-212000000Y-169016750D02*
X-226813250Y-183830000D01*
X-212000000Y-135875000D02*
X-212000000Y-169016750D01*
X-206550000Y-130425000D02*
X-212000000Y-135875000D01*
%TO.N,R13*%
X-224273250Y-183830000D02*
X-211550000Y-171106750D01*
X-211550000Y-152725000D02*
X-206625000Y-147800000D01*
X-206625000Y-147800000D02*
X-196625000Y-147800000D01*
X-211550000Y-171106750D02*
X-211550000Y-152725000D01*
%TO.N,R14*%
X-206725000Y-165175000D02*
X-196725000Y-165175000D01*
X-211100000Y-173196750D02*
X-211100000Y-169550000D01*
X-211100000Y-169550000D02*
X-206725000Y-165175000D01*
X-221733250Y-183830000D02*
X-211100000Y-173196750D01*
%TO.N,R16*%
X-193000000Y-194450000D02*
X-188225000Y-189675000D01*
X-219322145Y-197500000D02*
X-193000000Y-197500000D01*
X-188225000Y-189675000D02*
X-178225000Y-189675000D01*
X-220892145Y-199070000D02*
X-219322145Y-197500000D01*
X-221733250Y-199070000D02*
X-220892145Y-199070000D01*
X-193000000Y-197500000D02*
X-193000000Y-194450000D01*
%TO.N,R17*%
X-217850000Y-201200000D02*
X-217850000Y-200413250D01*
X-169850000Y-189675000D02*
X-181375000Y-201200000D01*
X-181375000Y-201200000D02*
X-217850000Y-201200000D01*
X-169850000Y-189675000D02*
X-159850000Y-189675000D01*
X-217850000Y-200413250D02*
X-219193250Y-199070000D01*
%TD*%
M02*
