M48
; DRILL file {KiCad 7.0.6-0} date 2024 October 24, Thursday 11:02:15
; FORMAT={-:-/ absolute / inch / decimal}
; #@! TF.CreationDate,2024-10-24T11:02:15+08:00
; #@! TF.GenerationSoftware,Kicad,Pcbnew,7.0.6-0
; #@! TF.FileFunction,NonPlated,1,2,NPTH
FMAT,2
INCH
; #@! TA.AperFunction,NonPlated,NPTH,ComponentDrill
T1C0.0354
; #@! TA.AperFunction,NonPlated,NPTH,ComponentDrill
T2C0.0669
; #@! TA.AperFunction,NonPlated,NPTH,ComponentDrill
T3C0.0984
; #@! TA.AperFunction,NonPlated,NPTH,ComponentDrill
T4C0.1339
%
G90
G05
T1
X-9.5059Y-8.153
X-9.3878Y-8.153
T2
X-9.5994Y-6.6545
X-9.5955Y-5.9705
X-9.5925Y-5.2864
X-9.1663Y-6.6545
X-9.1624Y-5.9705
X-9.1594Y-5.2864
X-8.878Y-6.6545
X-8.874Y-5.9705
X-8.8711Y-5.2864
X-8.4449Y-6.6545
X-8.4409Y-5.9705
X-8.438Y-5.2864
X-8.1585Y-6.6526
X-8.1545Y-5.9685
X-8.1516Y-5.2844
X-7.7254Y-6.6526
X-7.7215Y-5.9685
X-7.7185Y-5.2844
X-7.4331Y-6.6506
X-7.4301Y-7.6171
X-7.4291Y-5.9665
X-7.4262Y-5.2825
X-7.0Y-6.6506
X-6.997Y-7.6171
X-6.9961Y-5.9665
X-6.9931Y-5.2825
X-6.7116Y-6.6506
X-6.7077Y-5.9665
X-6.7067Y-7.6171
X-6.7047Y-5.2825
X-6.2785Y-6.6506
X-6.2746Y-5.9665
X-6.2736Y-7.6171
X-6.2717Y-5.2825
T3
X-9.7864Y-5.0148
X-9.7854Y-8.1093
X-8.2648Y-7.1988
X-8.2608Y-8.1024
X-7.7136Y-7.2047
X-7.7136Y-8.0984
X-6.0886Y-5.0148
X-6.0886Y-8.1161
T4
X-9.3829Y-6.6545
X-9.3789Y-5.9705
X-9.376Y-5.2864
X-8.6614Y-6.6545
X-8.6575Y-5.9705
X-8.6545Y-5.2864
X-7.9419Y-6.6526
X-7.938Y-5.9685
X-7.935Y-5.2844
X-7.2165Y-6.6506
X-7.2136Y-7.6171
X-7.2126Y-5.9665
X-7.2096Y-5.2825
X-6.4951Y-6.6506
X-6.4911Y-5.9665
X-6.4902Y-7.6171
X-6.4882Y-5.2825
T0
M30
