M48
; DRILL file {KiCad 7.0.6-0} date 2024 October 24, Thursday 11:02:15
; FORMAT={-:-/ absolute / inch / decimal}
; #@! TF.CreationDate,2024-10-24T11:02:15+08:00
; #@! TF.GenerationSoftware,Kicad,Pcbnew,7.0.6-0
; #@! TF.FileFunction,Plated,1,2,PTH
FMAT,2
INCH
; #@! TA.AperFunction,Plated,PTH,ComponentDrill
T1C0.0394
; #@! TA.AperFunction,Plated,PTH,ComponentDrill
T2C0.0430
; #@! TA.AperFunction,Plated,PTH,ComponentDrill
T3C0.0472
; #@! TA.AperFunction,Plated,PTH,ComponentDrill
T4C0.0512
%
G90
G05
T1
X-8.4587Y-7.3179
X-8.4587Y-7.4163
T2
X-9.7297Y-7.2374
X-9.7297Y-7.8374
X-9.6297Y-7.2374
X-9.6297Y-7.8374
X-9.5297Y-7.2374
X-9.5297Y-7.8374
X-9.4297Y-7.2374
X-9.4297Y-7.8374
X-9.3297Y-7.2374
X-9.3297Y-7.8374
X-9.2297Y-7.2374
X-9.2297Y-7.8374
X-9.1297Y-7.2374
X-9.1297Y-7.8374
X-9.0297Y-7.2374
X-9.0297Y-7.8374
X-8.9297Y-7.2374
X-8.9297Y-7.8374
X-8.8297Y-7.2374
X-8.8297Y-7.3374
X-8.8297Y-7.4374
X-8.8297Y-7.5374
X-8.8297Y-7.8374
X-8.7297Y-7.2374
X-8.7297Y-7.8374
X-8.6297Y-7.2374
X-8.6297Y-7.8374
T3
X-9.5797Y-6.5049
X-9.5758Y-5.8209
X-9.5728Y-5.1368
X-9.3829Y-6.4222
X-9.3789Y-5.7382
X-9.376Y-5.0541
X-9.186Y-6.5049
X-9.1821Y-5.8209
X-9.1791Y-5.1368
X-8.8583Y-6.5049
X-8.8543Y-5.8209
X-8.8514Y-5.1368
X-8.6614Y-6.4222
X-8.6575Y-5.7382
X-8.6545Y-5.0541
X-8.4646Y-6.5049
X-8.4606Y-5.8209
X-8.4577Y-5.1368
X-8.1388Y-6.503
X-8.1348Y-5.8189
X-8.1319Y-5.1348
X-7.9419Y-6.4203
X-7.938Y-5.7362
X-7.935Y-5.0522
X-7.7451Y-6.503
X-7.7411Y-5.8189
X-7.7382Y-5.1348
X-7.4134Y-6.501
X-7.4104Y-7.4675
X-7.4094Y-5.8169
X-7.4065Y-5.1329
X-7.2165Y-6.4183
X-7.2136Y-7.3848
X-7.2126Y-5.7343
X-7.2096Y-5.0502
X-7.0197Y-6.501
X-7.0167Y-7.4675
X-7.0157Y-5.8169
X-7.0128Y-5.1329
X-6.6919Y-6.501
X-6.688Y-5.8169
X-6.687Y-7.4675
X-6.685Y-5.1329
X-6.4951Y-6.4183
X-6.4911Y-5.7343
X-6.4902Y-7.3848
X-6.4882Y-5.0502
X-6.2982Y-6.501
X-6.2943Y-5.8169
X-6.2933Y-7.4675
X-6.2913Y-5.1329
T4
X-8.8504Y-8.0945
X-8.5945Y-8.0945
T0
M30
